<?xml version="1.0" standalone="no"?>
<!DOCTYPE svg PUBLIC "-//W3C//DTD SVG 20010904//EN"
 "http://www.w3.org/TR/2001/REC-SVG-20010904/DTD/svg10.dtd">
<svg version="1.0" xmlns="http://www.w3.org/2000/svg"
 width="468.000000pt" height="468.000000pt" viewBox="0 0 468.000000 468.000000"
 preserveAspectRatio="xMidYMid meet">
<metadata>
Created by potrace 1.14, written by Peter Selinger 2001-2017
</metadata>
<g transform="translate(0.000000,468.000000) scale(0.100000,-0.100000)"
fill="#000000" stroke="none">
<path d="M703 4103 c-7 -2 -13 -11 -13 -19 0 -8 -7 -14 -15 -14 -9 0 -15 -9
-15 -21 0 -12 -8 -23 -20 -26 -19 -5 -20 -14 -20 -209 0 -169 2 -204 14 -204
9 0 17 -15 21 -40 4 -26 12 -40 22 -40 8 0 26 -10 39 -22 l24 -23 0 -512 0
-513 -25 0 c-15 0 -25 -6 -25 -15 0 -10 -14 -17 -40 -21 -23 -4 -40 -12 -40
-20 0 -7 -16 -16 -36 -20 -24 -4 -38 -13 -41 -25 -3 -11 -14 -19 -24 -19 -11
0 -19 -7 -19 -15 0 -9 -11 -20 -25 -25 -14 -5 -25 -16 -25 -24 0 -8 -13 -17
-28 -21 -21 -4 -32 -16 -42 -40 -8 -19 -20 -35 -27 -35 -7 0 -13 -9 -13 -20 0
-13 -7 -20 -20 -20 -14 0 -20 -7 -20 -21 0 -12 -8 -23 -19 -26 -13 -3 -22 -17
-26 -44 -4 -24 -12 -39 -21 -39 -8 0 -16 -15 -20 -40 -4 -22 -12 -40 -19 -40
-13 0 -25 -30 -25 -67 0 -14 -6 -23 -15 -23 -8 0 -15 -1 -16 -2 0 -2 -4 -64
-8 -137 -5 -88 -12 -136 -19 -139 -15 -5 -16 -49 0 -54 7 -3 14 -51 19 -134 9
-151 6 -134 23 -134 9 0 16 -18 20 -50 4 -33 11 -50 20 -50 9 0 17 -16 21 -40
4 -24 12 -40 20 -40 8 0 17 -15 21 -35 3 -20 12 -35 20 -35 7 0 16 -11 20 -25
4 -16 13 -25 25 -25 15 0 19 -7 19 -34 0 -28 4 -35 25 -40 14 -4 25 -13 25
-21 0 -8 6 -15 14 -15 8 0 17 -9 21 -20 3 -10 22 -25 41 -32 18 -6 34 -18 34
-25 0 -7 9 -13 20 -13 13 0 20 -7 20 -19 0 -14 10 -20 40 -25 24 -4 40 -12 40
-20 0 -8 16 -16 40 -20 25 -4 40 -12 40 -21 0 -9 16 -16 45 -21 27 -4 45 -12
45 -19 0 -9 26 -15 86 -20 50 -5 91 -13 99 -21 18 -18 231 -20 237 -3 3 9 101
24 186 28 6 1 12 8 12 16 0 9 9 15 24 15 49 0 84 12 89 31 4 15 14 19 46 19
34 0 41 3 41 20 0 14 7 20 21 20 12 0 23 8 26 20 4 15 14 20 39 20 27 0 34 4
34 20 0 13 7 20 20 20 13 0 20 7 20 20 0 14 7 20 21 20 12 0 23 8 26 19 3 11
13 21 24 24 11 3 19 14 19 26 0 12 6 21 15 21 8 0 17 14 21 35 4 25 11 35 25
35 14 0 19 7 19 25 0 18 5 25 20 25 16 0 20 7 20 36 0 27 5 37 20 41 11 3 20
14 20 24 0 11 8 23 18 26 9 4 20 12 24 19 6 9 69 12 250 11 l243 -1 3 102 c2
77 6 102 16 102 14 0 26 -42 26 -91 0 -19 5 -29 15 -29 11 0 15 -11 15 -40 0
-25 5 -40 13 -41 6 0 130 0 274 0 145 0 276 -2 292 -5 35 -7 40 -17 48 -96 4
-36 11 -58 18 -58 8 0 14 -21 17 -56 3 -38 10 -59 21 -65 9 -5 19 -25 23 -43
4 -22 13 -36 25 -39 11 -3 19 -14 19 -25 0 -11 9 -22 20 -25 11 -3 20 -12 20
-20 0 -8 9 -17 20 -20 11 -3 20 -12 20 -20 0 -8 9 -17 20 -20 11 -3 20 -12 20
-20 0 -9 14 -17 35 -21 21 -4 35 -13 35 -22 0 -8 13 -17 30 -20 16 -4 30 -12
30 -19 0 -9 24 -16 76 -20 50 -5 77 -12 81 -21 8 -21 203 -20 203 1 0 10 10
15 28 15 52 0 102 13 102 25 0 8 18 16 40 20 24 4 40 12 40 21 0 8 15 16 40
20 30 5 40 11 40 25 0 12 7 19 20 19 13 0 20 7 20 20 0 13 7 20 20 20 13 0 20
7 20 19 0 10 9 21 19 24 13 3 22 17 26 41 4 21 13 36 21 36 8 0 14 9 14 21 0
12 8 23 19 26 15 4 20 18 26 79 5 54 11 74 21 74 11 0 14 24 14 125 0 103 -3
125 -15 125 -10 0 -16 17 -21 59 -5 46 -11 60 -25 64 -14 4 -19 14 -19 40 0
26 -5 36 -20 40 -12 3 -20 14 -20 26 0 14 -6 21 -20 21 -17 0 -20 7 -20 39 0
30 4 40 20 44 15 4 20 14 20 42 0 28 5 38 20 42 15 4 20 14 20 37 0 45 10 76
25 76 7 0 16 19 19 45 5 27 12 45 20 45 15 0 26 51 26 118 0 29 4 42 14 42 21
0 26 47 26 236 0 164 -1 174 -19 174 -15 0 -20 10 -25 45 -6 36 -11 45 -27 45
-12 0 -19 7 -19 20 0 13 -7 20 -20 20 -13 0 -20 7 -20 20 0 17 -7 20 -40 20
-33 0 -40 3 -40 20 0 19 -7 20 -225 20 l-225 0 0 370 c0 363 0 370 20 370 17
0 20 7 20 40 l0 40 40 0 40 0 0 150 c0 127 -2 150 -15 150 -8 0 -15 7 -15 15
0 11 -11 15 -42 15 -57 0 -88 -9 -88 -26 0 -10 -13 -14 -40 -14 -33 0 -40 -3
-40 -20 0 -14 -7 -20 -21 -20 -12 0 -23 -8 -26 -19 -3 -11 -13 -21 -24 -24
-11 -3 -19 -14 -19 -26 0 -12 -6 -21 -13 -21 -7 0 -19 -15 -25 -34 -7 -19 -19
-37 -27 -40 -10 -3 -15 -19 -15 -46 0 -29 -4 -40 -15 -40 -8 0 -16 -1 -17 -2
-1 -2 -4 -185 -7 -408 l-6 -405 -427 -3 -428 -2 0 37 c0 53 -10 83 -26 83 -11
0 -14 28 -14 141 0 132 -1 141 -20 146 -17 5 -20 14 -20 62 0 118 -12 221 -26
221 -11 0 -14 18 -14 73 0 108 -10 177 -26 177 -10 0 -14 15 -14 53 0 123 -13
237 -26 237 -9 0 -14 11 -14 29 0 54 -12 89 -31 94 -10 3 -19 12 -19 20 0 8
-13 17 -31 21 -37 7 -1708 7 -1726 -1z m1391 -570 c3 -21 6 -50 6 -65 0 -18 5
-28 15 -28 11 0 15 -12 15 -48 0 -113 13 -232 25 -232 9 0 15 -36 20 -125 5
-82 12 -128 20 -133 7 -4 15 -39 18 -79 5 -68 4 -73 -14 -73 -11 0 -22 -7 -25
-15 -6 -13 -64 -15 -469 -15 l-463 1 -6 22 c-8 31 -8 812 1 820 3 4 196 7 428
7 l422 0 7 -37z m496 -883 c0 -11 6 -20 14 -20 9 0 17 -16 21 -41 5 -29 13
-43 26 -46 15 -4 19 -14 19 -44 0 -32 3 -39 20 -39 11 0 20 -7 20 -15 0 -8 9
-15 20 -15 11 0 20 7 20 15 0 8 8 15 18 15 9 0 28 3 41 7 23 6 23 6 19 -71 -2
-51 -8 -80 -17 -86 -10 -6 -16 -39 -19 -114 l-5 -106 42 0 c35 0 41 3 41 21 0
12 8 23 20 26 11 3 20 12 20 20 0 8 9 17 19 20 11 3 21 13 24 24 7 28 77 27
84 -1 7 -25 55 -35 139 -27 l64 6 0 -60 c0 -42 -4 -61 -14 -65 -30 -11 -30
-124 -1 -124 25 0 29 -23 7 -41 -12 -9 -22 -22 -22 -28 0 -6 -9 -11 -21 -11
-12 0 -23 -8 -26 -20 -3 -11 -12 -20 -20 -20 -8 0 -17 -9 -20 -20 -3 -11 -14
-20 -24 -20 -12 0 -19 -7 -19 -20 0 -14 -7 -20 -21 -20 -12 0 -23 -8 -26 -20
-3 -11 -12 -20 -20 -20 -20 0 -63 -49 -63 -71 0 -11 -7 -19 -15 -19 -8 0 -15
-9 -15 -20 0 -11 7 -20 15 -20 11 0 15 -11 15 -40 0 -39 -1 -40 -34 -40 -25 0
-35 5 -39 20 -6 22 -40 24 -362 21 -163 -1 -211 -7 -219 -27 -3 -8 -19 -14
-41 -14 l-35 0 0 80 c0 73 -2 80 -20 80 -13 0 -20 7 -20 20 0 13 -7 20 -20 20
-11 0 -20 7 -20 15 0 9 -11 20 -25 25 -14 5 -25 16 -25 25 0 8 -7 15 -16 15
-9 0 -18 9 -21 20 -3 11 -14 20 -24 20 -10 0 -21 5 -24 10 -4 6 -10 8 -15 5
-4 -3 -10 4 -13 15 -3 12 -14 20 -26 20 -14 0 -21 6 -21 19 0 10 -9 21 -20 24
-11 3 -20 10 -20 17 0 7 9 14 20 17 11 3 20 14 20 24 0 11 7 22 15 25 8 4 15
12 15 20 0 8 -7 14 -15 14 -12 0 -15 13 -15 58 0 31 -3 67 -6 80 -6 20 -3 22
40 22 34 0 46 -4 46 -15 0 -8 9 -15 20 -15 11 0 20 6 20 14 0 9 15 17 39 21
35 6 40 10 45 41 7 34 36 49 36 18 0 -9 9 -18 20 -21 11 -3 20 -12 20 -20 0
-8 9 -17 20 -20 11 -3 20 -12 20 -20 0 -8 9 -17 19 -20 11 -3 21 -13 24 -24 4
-15 14 -19 46 -19 l41 0 0 49 c0 68 -10 111 -26 111 -11 0 -14 20 -14 90 0 73
-3 90 -15 90 -8 0 -15 7 -15 15 0 11 11 15 40 15 29 0 40 -4 40 -15 0 -8 7
-15 15 -15 8 0 15 4 15 9 0 5 9 11 21 14 11 3 23 15 26 26 3 12 11 21 18 21 7
0 16 19 19 45 5 29 12 45 21 45 9 0 17 15 21 40 5 30 11 40 25 40 12 0 19 -7
19 -20z m-1397 -660 c4 -15 14 -20 39 -20 48 0 78 -10 78 -26 0 -8 10 -14 25
-14 18 0 25 -5 25 -20 0 -13 7 -20 20 -20 13 0 20 -7 20 -20 0 -13 7 -20 20
-20 13 0 20 -7 20 -20 0 -13 7 -20 20 -20 15 0 20 -7 20 -25 0 -15 6 -25 14
-25 16 0 26 -30 26 -77 0 -22 6 -36 20 -43 18 -9 20 -21 20 -95 0 -92 -5 -115
-26 -115 -10 0 -14 -15 -14 -55 0 -48 -2 -55 -20 -55 -15 0 -20 -7 -20 -25 0
-18 -5 -25 -19 -25 -14 0 -21 -10 -25 -35 -6 -29 -12 -35 -41 -41 -25 -4 -35
-11 -35 -25 0 -14 -7 -19 -25 -19 -15 0 -25 -6 -25 -15 0 -14 -13 -17 -112
-30 -32 -4 -48 -11 -48 -21 0 -10 -13 -14 -45 -14 -32 0 -45 4 -45 14 0 11
-21 16 -80 22 -69 6 -80 9 -80 25 0 15 -8 19 -40 19 -33 0 -40 3 -40 20 0 13
-7 20 -20 20 -13 0 -20 7 -20 20 0 13 -7 20 -20 20 -13 0 -20 7 -20 19 0 10
-9 21 -20 24 -15 4 -20 14 -20 41 0 28 -4 36 -18 36 -17 0 -20 11 -25 95 -9
129 2 285 19 285 7 0 16 16 20 36 4 24 13 38 25 41 11 3 19 14 19 24 0 12 7
19 20 19 13 0 20 7 20 20 0 13 7 20 20 20 13 0 20 7 20 20 0 17 7 20 40 20 33
0 40 3 40 20 0 16 7 20 38 20 52 0 82 10 82 26 0 11 19 14 84 14 75 0 84 -2
89 -20z m2756 -636 c17 -4 31 -13 31 -20 0 -8 9 -14 20 -14 14 0 20 -7 20 -21
0 -12 8 -23 20 -26 24 -6 35 -70 25 -148 -5 -45 -10 -55 -26 -55 -12 0 -19 -7
-19 -20 0 -12 -7 -20 -16 -20 -9 0 -18 -9 -21 -20 -5 -18 -14 -20 -104 -20
-81 0 -99 3 -99 15 0 8 -9 15 -19 15 -13 0 -21 8 -23 23 -2 14 -11 23 -25 25
-22 3 -23 7 -23 102 0 90 2 99 20 105 11 3 20 13 20 22 0 8 9 17 20 20 11 3
20 11 20 19 0 19 113 31 179 18z"/>
<path d="M2550 1824 l0 -66 -46 7 c-44 6 -45 5 -42 -17 2 -15 11 -24 26 -26
12 -2 22 -9 22 -17 0 -7 9 -15 20 -18 16 -4 20 -14 20 -46 0 -34 3 -41 20 -41
17 0 20 7 20 40 0 33 3 40 19 40 11 0 22 9 26 20 4 12 19 22 41 26 19 3 34 12
34 20 0 8 16 16 40 20 48 8 53 29 9 38 -35 7 -49 1 -49 -18 0 -14 -42 -26 -90
-26 -23 0 -29 5 -34 31 -3 17 -6 47 -6 65 0 24 -5 34 -15 34 -12 0 -15 -14
-15 -66z"/>
<path d="M2310 1825 c0 -8 7 -15 15 -15 8 0 15 7 15 15 0 8 -7 15 -15 15 -8 0
-15 -7 -15 -15z"/>
<path d="M2790 1825 c0 -8 9 -15 20 -15 11 0 20 7 20 15 0 8 -9 15 -20 15 -11
0 -20 -7 -20 -15z"/>
<path d="M2387 1803 c-18 -17 -5 -33 28 -33 40 0 49 24 13 34 -29 7 -33 7 -41
-1z"/>
</g>
</svg>
